<svg width="320" height="320" viewBox="0 0 320 320" fill="none" xmlns="http://www.w3.org/2000/svg">
<path id="disabled" d= "M0,160a160,160 0 1,0 320,0a160,160 0 1,0 -320,0" fill="white" />
<path id="forward1" d="M469 160C469 248.366 397.366 320 309 320C220.634 320 0.5 248.366 0.5 160C0.5 71.6344 220.634 0 309 0C397.366 0 469 71.6344 469 160Z" fill="white"/>
<path id="forward2" d="M212 160C212 248.366 164.542 320 106 320C0 320 0 248.366 0 160C0 71.6344 0 -1.0125e-05 106 0C168.5 5.96993e-06 212 71.6344 212 160Z" fill="white" />
<path id="enabled" d="M0,160a160,160 0 1,0 320,0a160,160 0 1,0 -320,0" fill="white" />
<path id="back1" d="M474 160C474 248.366 248.366 320 160 320C71.6344 320 0 248.366 0 160C0 71.6344 71.6344 0 160 0C248.366 0 474 71.6344 474 160Z" fill="white"/>
<path id="back2" d="M198 160C198 248.366 183.5 320 99 320C44.3238 320 0 248.366 0 160C0 71.6344 44.3238 0 99 0C181 0 198 71.6344 198 160Z" fill="white"/>
</svg>