<svg width="25" height="24" viewBox="0 0 25 24" fill="none" xmlns="http://www.w3.org/2000/svg">
<g opacity="0.84">
<path fill-rule="evenodd" clip-rule="evenodd" d="M8.5494 6.75C9.08672 6.75 9.58311 6.7893 10.0386 6.90721C10.494 6.98581 10.8676 7.14793 11.2002 7.34443C11.5328 7.54094 11.7785 7.82096 11.9473 8.17959C12.1111 8.53821 12.1981 8.97544 12.1981 9.45197C12.1981 10.0071 12.0753 10.4836 11.7836 10.8422C11.5328 11.2009 11.1234 11.5202 10.6219 11.756C11.3281 11.9525 11.8654 12.3111 12.193 12.7877C12.5205 13.2642 12.7303 13.8586 12.7303 14.5366C12.7303 15.0917 12.6075 15.5682 12.3977 15.9662C12.193 16.3641 11.8603 16.7227 11.4868 16.9585C11.1132 17.1992 10.6578 17.3957 10.1614 17.5136C9.66498 17.6315 9.1686 17.7102 8.67222 17.7102L3.125 17.72V6.75H8.5494ZM8.21677 11.2009C8.67222 11.2009 9.04578 11.083 9.33236 10.8815C9.61893 10.6801 9.74686 10.3264 9.74686 9.88919C9.74686 9.64847 9.70592 9.41266 9.62404 9.25546C9.54217 9.09825 9.41935 8.97544 9.25048 8.85753C9.08672 8.77893 8.91785 8.70033 8.71315 8.66103C8.50846 8.62173 8.29865 8.62173 8.05302 8.62173H5.65298V11.2058C5.65298 11.2009 8.21677 11.2009 8.21677 11.2009ZM9.04578 15.8139C8.83597 15.8532 8.59034 15.8925 8.33959 15.8925V15.8876H5.65298V12.827H8.38053C8.91785 12.827 9.37329 12.9449 9.70592 13.1856C10.0386 13.4656 10.2023 13.8635 10.2023 14.4187C10.2023 14.6987 10.1204 14.9394 10.0386 15.1359C9.91573 15.3324 9.7878 15.4503 9.62404 15.5731C9.46029 15.696 9.25048 15.7746 9.04578 15.8139Z" fill="black"/>
<path fill-rule="evenodd" clip-rule="evenodd" d="M19.9355 7.50659H15.2992V8.57755H19.9355V7.50659ZM16.3329 15.8532C16.6656 16.1725 17.1619 16.3297 17.8221 16.3297C18.2775 16.3297 18.692 16.2118 19.0247 16.0104C19.3573 15.7697 19.562 15.5339 19.6439 15.2932H21.6703C21.3377 16.2462 20.8413 16.9242 20.1812 17.3614C19.521 17.7593 18.733 17.9951 17.7811 17.9951C17.121 17.9951 16.5376 17.8772 16.0003 17.6758C15.463 17.4793 15.0485 17.1993 14.6749 16.8014C14.3013 16.4427 14.0148 16.0055 13.8459 15.4897C13.6412 14.9738 13.5542 14.4187 13.5542 13.7801C13.5542 13.1856 13.6361 12.6256 13.8459 12.1098C14.0557 11.5939 14.3423 11.1567 14.7158 10.7588C15.0894 10.4002 15.5449 10.0808 16.0412 9.88432C16.5786 9.68781 17.1159 9.565 17.7811 9.565C18.4873 9.565 19.1065 9.6829 19.6439 9.96292C20.1812 10.2429 20.5957 10.5574 20.9283 11.0339C21.2609 11.4711 21.5066 11.9869 21.6754 12.5421C21.7573 13.0972 21.7983 13.6572 21.7573 14.291H15.7547C15.7547 14.9395 16.0003 15.5339 16.3329 15.8532ZM18.9428 11.6774C18.6511 11.3974 18.1956 11.2402 17.6583 11.2402C17.2848 11.2402 16.9982 11.3188 16.7474 11.4367C16.506 11.5503 16.3452 11.7048 16.1874 11.8565L16.1874 11.8565L16.1692 11.874C16.0054 12.0312 15.9184 12.2326 15.8775 12.4291C15.8711 12.4597 15.8647 12.4894 15.8585 12.5185L15.8585 12.5186C15.8248 12.676 15.7956 12.8122 15.7956 12.9449H19.521C19.4392 12.3554 19.2293 11.9575 18.9428 11.6774Z" fill="black"/>
</g>
</svg>
