<svg width="88" height="48" viewBox="0 0 88 48" fill="none" xmlns="http://www.w3.org/2000/svg">
<g opacity="0.84">
<mask id="mask0_1023_15525" style="mask-type:luminance" maskUnits="userSpaceOnUse" x="0" y="0" width="17" height="38">
<path fill-rule="evenodd" clip-rule="evenodd" d="M0.950195 0.242676H16.6125V38H0.950195V0.242676Z" fill="white"/>
</mask>
<g mask="url(#mask0_1023_15525)">
<path fill-rule="evenodd" clip-rule="evenodd" d="M1.2127 33.6339H3.4002C4.1002 33.6339 4.8002 32.9071 4.8002 32.3403V16.4935C4.8002 15.9275 4.1002 15.119 3.4002 15.119H0.950195V10.5105H11.6252C12.5002 10.5105 13.0252 11.319 13.0252 13.4212V32.3403C13.0252 32.9871 13.7252 33.6339 14.4252 33.6339H16.6127V37.9999H1.2127V33.6339ZM4.2752 4.28499C4.2752 2.02116 6.2877 0.242432 8.7377 0.242432C11.2752 0.242432 13.2002 2.10201 13.2002 4.28499C13.2002 6.54881 11.1877 8.32754 8.7377 8.32754C6.2877 8.32754 4.2752 6.54881 4.2752 4.28499Z" fill="black"/>
</g>
<path fill-rule="evenodd" clip-rule="evenodd" d="M18.8003 24.6246C18.8003 15.5673 25.3867 10 34.084 10C38.5594 10 41.0926 10.9971 42.8659 11.9112V17.8109H39.826C38.6438 16.7307 36.6173 15.7335 34.084 15.7335C29.9464 15.7335 26.9066 18.7249 26.9066 24.6246C26.9066 30.6905 29.7776 33.2665 33.8307 33.2665C37.2083 33.2665 38.9816 32.1032 40.2482 31.0229H42.9503V36.4241C41.177 37.5882 38.0527 39 33.6618 39C24.2889 39 18.8003 33.5989 18.8003 24.6246Z" fill="black"/>
<path fill-rule="evenodd" clip-rule="evenodd" d="M46.1001 23.6657C46.1001 14.6343 52.7278 9 60.8001 9C68.9573 9 75.5001 14.5514 75.5001 23.6657C75.5001 32.6971 68.8724 38 60.8001 38C52.7278 38 46.1001 32.6971 46.1001 23.6657ZM67.5128 23.7486C67.5128 17.6171 64.7937 14.6343 60.8851 14.6343C56.9764 14.6343 54.2573 17.6171 54.2573 23.7486C54.2573 29.7971 56.9764 32.4494 60.8851 32.4494C64.7937 32.4494 67.5128 29.7971 67.5128 23.7486Z" fill="black"/>
<mask id="mask1_1023_15525" style="mask-type:luminance" maskUnits="userSpaceOnUse" x="77" y="30" width="11" height="9">
<path fill-rule="evenodd" clip-rule="evenodd" d="M77.9443 30.0002H87.0504V38.5085H77.9443V30.0002Z" fill="white"/>
</mask>
<g mask="url(#mask1_1023_15525)">
<path fill-rule="evenodd" clip-rule="evenodd" d="M77.9443 34.2548C77.9443 31.8821 79.9202 30.0002 82.4975 30.0002C84.988 30.0002 87.0507 31.8821 87.0507 34.2548C87.0507 36.6267 84.988 38.5085 82.4975 38.5085C79.9202 38.5085 77.9443 36.6267 77.9443 34.2548Z" fill="black"/>
</g>
<mask id="mask2_1023_15525" style="mask-type:luminance" maskUnits="userSpaceOnUse" x="0" y="0" width="88" height="48">
<path fill-rule="evenodd" clip-rule="evenodd" d="M0.950195 48H87.0502V0H0.950195V48Z" fill="white"/>
</mask>
<g mask="url(#mask2_1023_15525)">
<path fill-rule="evenodd" clip-rule="evenodd" d="M0.950195 47.8367H1.64246V44H0.950195V47.8367ZM4.1519 44.898C3.71924 44.898 3.37311 45.0612 3.02698 45.2245C3.02698 44.9796 2.94045 44.898 2.76738 44.898H2.42125V47.8367H3.11351V45.7143C3.37311 45.551 3.63271 45.4694 3.97884 45.4694C4.23844 45.4694 4.4115 45.551 4.4115 45.8776V47.8367H5.01723V45.7143C5.01723 45.1429 4.58457 44.898 4.1519 44.898ZM6.57482 44C6.05562 44 5.70949 44.2449 5.70949 44.8163V44.9796H5.36336V45.4694H5.70949V47.9184H6.40175V45.4694H7.00748V44.9796H6.40175V44.8163C6.40175 44.5714 6.48829 44.4898 6.74788 44.4898H7.00748V44.0816C6.92095 44 6.83442 44 6.57482 44ZM8.6516 44.898C7.78628 44.898 7.18055 45.4694 7.18055 46.3673C7.18055 47.2653 7.78628 47.8367 8.6516 47.8367C9.51693 47.8367 10.1227 47.2653 10.1227 46.3673C10.1227 45.4694 9.51693 44.898 8.6516 44.898ZM8.6516 47.4286C8.13241 47.4286 7.87281 47.102 7.87281 46.449C7.87281 45.7959 8.21894 45.4694 8.6516 45.4694C9.1708 45.4694 9.4304 45.7959 9.4304 46.449C9.4304 47.102 9.1708 47.4286 8.6516 47.4286ZM12.1129 44.9796C11.7668 44.9796 11.5072 45.1429 11.3341 45.3061C11.3341 45.0612 11.2476 44.9796 11.0745 44.9796H10.6419V47.9184H11.3341V45.7959C11.5072 45.6327 11.7668 45.4694 12.1994 45.4694H12.286H12.3725V44.9796H12.1129ZM16.2665 44.898C15.8338 44.898 15.4877 45.0612 15.1416 45.3061C15.055 45.0612 14.7089 44.898 14.4493 44.898C14.0166 44.898 13.6705 45.0612 13.4109 45.2245C13.4109 44.9796 13.3244 44.898 13.1513 44.898H12.7186V47.8367H13.4109V45.7143C13.6705 45.551 13.8436 45.4694 14.1897 45.4694C14.4493 45.4694 14.5358 45.551 14.5358 45.8776V47.9184H15.2281V45.7959C15.4011 45.6327 15.6607 45.551 16.0069 45.551C16.2665 45.551 16.353 45.6327 16.353 45.9592V48H17.0453V45.8776C17.0453 45.1429 16.6991 44.898 16.2665 44.898ZM18.8625 44.898C18.3433 44.898 17.9971 44.9796 17.7375 45.1429V45.6327H17.9971C18.1702 45.4694 18.4298 45.3878 18.7759 45.3878C19.1221 45.3878 19.2951 45.551 19.2951 45.7959V46.1224C19.1221 46.0408 18.949 46.0408 18.6894 46.0408C17.9971 46.0408 17.4779 46.3673 17.4779 46.9388C17.4779 47.5102 17.9106 47.8367 18.4298 47.8367C18.7759 47.8367 19.0355 47.7551 19.2951 47.5102C19.2951 47.6735 19.4682 47.7551 19.6413 47.7551H19.9008V45.7959C19.9874 45.2245 19.5547 44.898 18.8625 44.898ZM19.2951 47.102C19.1221 47.2653 18.949 47.4286 18.6894 47.4286C18.3433 47.4286 18.1702 47.2653 18.1702 46.9388C18.1702 46.6122 18.4298 46.5306 18.7759 46.5306C18.949 46.5306 19.1221 46.5306 19.2951 46.6122V47.102ZM21.4584 47.102V45.4694H22.1507V44.9796H21.4584V44.1633H20.7662V44.9796H20.42V45.4694H20.7662V47.1837C20.7662 47.7551 21.1123 47.9184 21.6315 47.9184C21.8046 47.9184 21.9776 47.9184 22.1507 47.8367V47.4286H21.8046C21.545 47.4286 21.4584 47.3469 21.4584 47.102ZM22.9295 44.9796H22.5834V47.9184H23.2756V45.4694C23.2756 45.3061 23.2756 45.1429 23.1891 45.1429C23.1891 44.9796 23.1026 44.9796 22.9295 44.9796ZM22.9295 44C22.7564 44 22.5834 44.1633 22.5834 44.3265C22.5834 44.4898 22.7564 44.6531 22.9295 44.6531C23.1026 44.6531 23.2756 44.4898 23.2756 44.3265C23.2756 44.1633 23.1026 44 22.9295 44ZM25.2659 44.898C24.4005 44.898 23.7948 45.4694 23.7948 46.3673C23.7948 47.2653 24.4005 47.8367 25.2659 47.8367C26.1312 47.8367 26.7369 47.2653 26.7369 46.3673C26.7369 45.4694 26.0447 44.898 25.2659 44.898ZM26.0447 46.449C26.0447 47.102 25.6985 47.4286 25.2659 47.4286C24.7467 47.4286 24.4871 47.102 24.4871 46.449C24.4871 45.7959 24.8332 45.4694 25.2659 45.4694C25.6985 45.3878 26.0447 45.7959 26.0447 46.449ZM28.9868 44.898C28.5541 44.898 28.208 45.0612 27.8619 45.2245C27.8619 44.9796 27.7753 44.898 27.6023 44.898H27.1696V47.8367H27.8619V45.7143C28.1215 45.551 28.3811 45.4694 28.7272 45.4694C28.9868 45.4694 29.1598 45.551 29.1598 45.8776V47.8367H29.8521V45.7143C29.7656 45.1429 29.4194 44.898 28.9868 44.898ZM34.4383 46.9388C34.1787 47.1837 33.9191 47.3469 33.3999 47.3469C32.7077 47.3469 32.275 46.8571 32.275 45.8776C32.275 44.9796 32.7077 44.4898 33.3999 44.4898C33.8326 44.4898 34.0922 44.6531 34.2653 44.8163H34.5249V44.3265C34.2653 44.1633 33.9191 44 33.3134 44C32.275 44 31.4097 44.7347 31.4097 45.9592C31.4097 47.1837 32.102 47.9184 33.2269 47.9184C33.8326 47.9184 34.2653 47.7551 34.5249 47.5102V47.0204L34.4383 46.9388ZM36.5151 44.898C35.6498 44.898 35.0441 45.4694 35.0441 46.3673C35.0441 47.2653 35.6498 47.8367 36.5151 47.8367C37.3804 47.8367 37.9862 47.2653 37.9862 46.3673C37.9862 45.4694 37.2939 44.898 36.5151 44.898ZM36.5151 47.4286C35.9959 47.4286 35.7363 47.102 35.7363 46.449C35.7363 45.7959 36.0825 45.4694 36.5151 45.4694C37.0343 45.4694 37.2939 45.7959 37.2939 46.449C37.2939 47.102 36.9478 47.4286 36.5151 47.4286ZM41.9667 44.898C41.534 44.898 41.1879 45.0612 40.8418 45.3061C40.7552 45.0612 40.4091 44.898 40.1495 44.898C39.7168 44.898 39.3707 45.0612 39.1111 45.2245C39.1111 44.9796 39.0246 44.898 38.8515 44.898H38.4188V47.8367H39.1111V45.7143C39.3707 45.551 39.5438 45.4694 39.8899 45.4694C40.1495 45.4694 40.236 45.551 40.236 45.8776V47.9184H40.9283V45.7959C41.1014 45.6327 41.361 45.551 41.7071 45.551C41.9667 45.551 42.0532 45.6327 42.0532 45.9592V48H42.7455V45.8776C42.7455 45.1429 42.3993 44.898 41.9667 44.898ZM46.899 44.898C46.4664 44.898 46.1202 45.0612 45.7741 45.3061C45.6876 45.0612 45.3415 44.898 45.0819 44.898C44.6492 44.898 44.3031 45.0612 44.0435 45.2245C44.0435 44.9796 43.9569 44.898 43.7839 44.898H43.3512V47.8367H44.0435V45.7143C44.3031 45.551 44.4761 45.4694 44.8223 45.4694C45.0819 45.4694 45.1684 45.551 45.1684 45.8776V47.9184H45.8606V45.7959C46.1202 45.6327 46.3798 45.551 46.6394 45.551C46.899 45.551 46.9856 45.6327 46.9856 45.9592V48H47.6778V45.8776C47.6778 45.1429 47.3317 44.898 46.899 44.898ZM48.7162 44.9796H48.3701V47.9184H49.0624V45.4694C49.0624 45.3061 49.0624 45.1429 48.9758 45.1429C48.9758 44.9796 48.8893 44.9796 48.7162 44.9796ZM48.7162 44C48.5432 44 48.3701 44.1633 48.3701 44.3265C48.3701 44.4898 48.5432 44.6531 48.7162 44.6531C48.8893 44.6531 49.0624 44.4898 49.0624 44.3265C49.1489 44.1633 48.8893 44 48.7162 44ZM50.793 46.1224C50.3603 46.0408 50.1873 45.9592 50.1873 45.7959C50.1873 45.551 50.3603 45.4694 50.7065 45.4694C51.0526 45.4694 51.2257 45.551 51.3987 45.6327H51.6583V45.1429C51.4853 45.0612 51.2257 44.898 50.793 44.898C50.1007 44.898 49.6681 45.2245 49.6681 45.7959C49.6681 46.3673 50.0142 46.6122 50.6199 46.6122C51.1391 46.6939 51.2257 46.7755 51.2257 47.0204C51.2257 47.2653 51.0526 47.3469 50.6199 47.4286C50.2738 47.4286 50.0142 47.2653 49.9277 47.1837H49.6681V47.6735C49.8412 47.8367 50.1873 47.9184 50.7065 47.9184C51.4853 47.9184 51.9179 47.5918 51.9179 47.0204C51.8314 46.449 51.4853 46.2041 50.793 46.1224ZM53.389 46.1224C52.9563 46.0408 52.7833 45.9592 52.7833 45.7959C52.7833 45.551 52.9563 45.4694 53.3025 45.4694C53.6486 45.4694 53.8217 45.551 53.9947 45.6327H54.2543V45.1429C54.0812 45.0612 53.8217 44.898 53.389 44.9796C52.6967 44.9796 52.2641 45.3061 52.2641 45.8776C52.2641 46.449 52.6102 46.6939 53.2159 46.6939C53.7351 46.7755 53.8217 46.8571 53.8217 47.102C53.8217 47.3469 53.6486 47.4286 53.2159 47.5102C52.8698 47.5102 52.6102 47.3469 52.5237 47.2653H52.2641V47.7551C52.4371 47.9184 52.7833 48 53.3025 48C54.0812 48 54.5139 47.6735 54.5139 47.102C54.3408 46.449 53.9947 46.2041 53.389 46.1224ZM55.2062 44C55.0331 44 54.86 44.1633 54.86 44.3265C54.86 44.4898 55.0331 44.6531 55.2062 44.6531C55.3792 44.6531 55.5523 44.4898 55.5523 44.3265C55.6388 44.1633 55.4658 44 55.2062 44ZM55.2062 44.9796H54.86V47.9184H55.5523V45.4694C55.5523 45.3061 55.5523 45.1429 55.4658 45.1429C55.4658 44.9796 55.3792 44.9796 55.2062 44.9796ZM57.5426 44.898C56.6772 44.898 56.0715 45.4694 56.0715 46.3673C56.0715 47.2653 56.6772 47.8367 57.5426 47.8367C58.4079 47.8367 59.0136 47.2653 59.0136 46.3673C59.0136 45.4694 58.4079 44.898 57.5426 44.898ZM58.3214 46.449C58.3214 47.102 57.9752 47.4286 57.5426 47.4286C57.0234 47.4286 56.7638 47.102 56.7638 46.449C56.7638 45.7959 57.1099 45.4694 57.5426 45.4694C58.0618 45.3878 58.3214 45.7959 58.3214 46.449ZM61.2635 44.898C60.8308 44.898 60.4847 45.0612 60.1385 45.2245C60.1385 44.9796 60.052 44.898 59.8789 44.898H59.5328V47.8367H60.2251V45.7143C60.4847 45.551 60.7443 45.4694 61.0904 45.4694C61.35 45.4694 61.5231 45.551 61.5231 45.8776V47.8367H62.1288V45.7143C62.1288 45.1429 61.6961 44.898 61.2635 44.898ZM63.946 44.898C63.1672 44.898 62.5615 45.4694 62.5615 46.3673C62.5615 47.2653 63.0806 47.8367 64.0325 47.8367C64.6382 47.8367 64.8978 47.6735 65.1574 47.5102V47.102H64.8978C64.7248 47.2653 64.4652 47.4286 64.119 47.4286C63.5998 47.4286 63.3402 47.1837 63.2537 46.6122H65.244V46.449C65.244 45.3878 64.8113 44.898 63.946 44.898ZM63.2537 46.1224C63.3402 45.551 63.5998 45.3878 63.946 45.3878C64.2921 45.3878 64.5517 45.551 64.5517 46.1224H63.2537ZM67.2342 44.9796C66.8881 44.9796 66.6285 45.1429 66.4554 45.3061C66.4554 45.0612 66.3689 44.9796 66.1958 44.9796H65.7632V47.9184H66.4554V45.7959C66.6285 45.6327 66.8881 45.4694 67.3207 45.4694H67.4073H67.4938V44.9796H67.2342ZM68.2726 44C68.0995 44 67.9265 44.1633 67.9265 44.3265C67.9265 44.4898 68.013 44.5714 68.0995 44.5714L68.1861 44.6531C68.1861 44.7347 68.0995 44.8163 67.9265 44.8163V45.1429H68.013C68.5322 45.0612 68.7918 44.8163 68.7918 44.4082C68.7053 44.1633 68.4457 44 68.2726 44ZM70.0033 46.1224C69.5706 46.0408 69.3975 45.9592 69.3975 45.7959C69.3975 45.551 69.5706 45.4694 69.9167 45.4694C70.2629 45.4694 70.4359 45.551 70.609 45.6327H70.7821V45.1429C70.609 45.0612 70.3494 44.898 69.9167 44.9796C69.2245 44.9796 68.7918 45.3061 68.7918 45.8776C68.7918 46.449 69.1379 46.6939 69.7437 46.6939C70.2629 46.7755 70.3494 46.8571 70.3494 47.102C70.3494 47.3469 70.1763 47.4286 69.7437 47.5102C69.3975 47.5102 69.1379 47.3469 69.0514 47.2653H68.7918V47.7551C68.9649 47.9184 69.311 48 69.8302 48C70.609 48 71.0416 47.6735 71.0416 47.102C70.9551 46.449 70.609 46.2041 70.0033 46.1224ZM74.4164 44C73.378 44 72.5992 44.7347 72.5992 45.9592C72.5992 47.1837 73.4646 47.9184 74.4164 47.9184C75.3683 47.9184 76.2336 47.1837 76.2336 45.9592C76.2336 44.6531 75.4548 44 74.4164 44ZM74.4164 47.3469C73.7242 47.3469 73.2915 46.9388 73.2915 45.8776C73.2915 44.898 73.8107 44.4082 74.4164 44.4082C75.0222 44.4082 75.5414 44.898 75.5414 45.8776C75.5414 46.9388 75.0222 47.3469 74.4164 47.3469ZM77.7912 44C77.272 44 76.9259 44.2449 76.9259 44.8163V44.9796H76.5797V45.4694H76.9259V47.9184H77.6181V45.4694H78.2239V44.9796H77.6181V44.8163C77.6181 44.5714 77.7047 44.4898 77.9643 44.4898H78.2239V44.0816C78.1373 44 77.9643 44 77.7912 44ZM79.6084 44C79.0892 44 78.7431 44.2449 78.7431 44.8163V44.9796H78.3969V45.4694H78.7431V47.9184H79.4353V45.4694H80.0411V44.9796H79.4353V44.8163C79.4353 44.5714 79.5219 44.4898 79.7815 44.4898H80.0411V44.0816C79.9545 44 79.7815 44 79.6084 44ZM80.7333 44.9796H80.3872V47.9184H81.0794V45.4694C81.0794 45.3061 81.0794 45.1429 80.9929 45.1429C80.9929 44.9796 80.9064 44.9796 80.7333 44.9796ZM80.7333 44C80.5602 44 80.3872 44.1633 80.3872 44.3265C80.3872 44.4898 80.5602 44.6531 80.7333 44.6531C80.9064 44.6531 81.0794 44.4898 81.0794 44.3265C81.166 44.1633 80.9929 44 80.7333 44ZM83.7619 47.102C83.6754 47.1837 83.4158 47.3469 83.0697 47.3469C82.5505 47.3469 82.2909 47.0204 82.2909 46.3673C82.2909 45.7143 82.637 45.3878 83.1562 45.3878C83.5023 45.3878 83.6754 45.4694 83.7619 45.6327H84.1081V45.1429C83.935 45.0612 83.6754 44.898 83.1562 44.898C82.2909 44.898 81.5986 45.4694 81.5986 46.3673C81.5986 47.2653 82.1178 47.8367 83.0697 47.8367C83.5889 47.8367 83.8485 47.6735 84.0215 47.5102V47.0204L83.7619 47.102ZM85.7522 44.898C84.9734 44.898 84.3677 45.4694 84.3677 46.3673C84.3677 47.2653 84.8869 47.8367 85.8387 47.8367C86.4445 47.8367 86.7041 47.6735 86.9637 47.5102V47.102H86.7041C86.531 47.2653 86.2714 47.3469 85.9253 47.3469C85.4061 47.3469 85.1465 47.102 85.0599 46.5306H87.0502V46.449V46.2857C87.0502 45.3878 86.6175 44.898 85.7522 44.898ZM85.0599 46.1224C85.1465 45.551 85.4061 45.3878 85.7522 45.3878C86.0983 45.3878 86.3579 45.551 86.3579 46.1224H85.0599Z" fill="black"/>
</g>
</g>
</svg>
