<svg width="26" height="24" viewBox="0 0 26 24" fill="none" xmlns="http://www.w3.org/2000/svg">
<path fill-rule="evenodd" clip-rule="evenodd" d="M12.8967 2.2854C10.3311 2.2854 10.0093 2.29564 9.00173 2.33894C7.99617 2.38213 7.30947 2.53255 6.70853 2.7525C6.08734 2.97983 5.56047 3.28405 5.03528 3.77866C4.51009 4.2733 4.18707 4.76946 3.94564 5.35452C3.71209 5.92043 3.55242 6.56718 3.50652 7.51416C3.46054 8.46311 3.44971 8.76606 3.44971 11.1823C3.44971 13.5986 3.46054 13.9016 3.50652 14.8506C3.55242 15.7976 3.71209 16.4443 3.94564 17.0102C4.18707 17.5952 4.51009 18.0914 5.03528 18.5861C5.56047 19.0807 6.08734 19.3849 6.70853 19.6123C7.30947 19.8322 7.99617 19.9826 9.00173 20.0258C10.0093 20.0691 10.3311 20.0793 12.8967 20.0793C15.4624 20.0793 15.7841 20.0691 16.7917 20.0258C17.7972 19.9826 18.4839 19.8322 19.0849 19.6123C19.7061 19.3849 20.2329 19.0807 20.7581 18.5861C21.2834 18.0914 21.6063 17.5953 21.8478 17.0102C22.0813 16.4443 22.241 15.7976 22.2869 14.8506C22.3329 13.9016 22.3437 13.5986 22.3437 11.1823C22.3437 8.76609 22.3329 8.46311 22.2869 7.51416C22.241 6.56718 22.0813 5.92043 21.8478 5.35452C21.6063 4.76946 21.2834 4.2733 20.7581 3.77866C20.2329 3.28405 19.7061 2.97983 19.0849 2.7525C18.4839 2.53255 17.7972 2.38213 16.7917 2.33894C15.7841 2.29564 15.4624 2.2854 12.8967 2.2854ZM12.8967 3.88845C15.4192 3.88845 15.7179 3.8975 16.7141 3.9403C17.6352 3.97989 18.1354 4.12483 18.4683 4.24667C18.9092 4.40807 19.224 4.60086 19.5545 4.91218C19.8851 5.22353 20.0898 5.5199 20.2612 5.93519C20.3906 6.2487 20.5445 6.71982 20.5865 7.58723C20.6319 8.52538 20.6415 8.80678 20.6415 11.1823C20.6415 13.558 20.6319 13.8394 20.5865 14.7775C20.5445 15.6449 20.3906 16.116 20.2612 16.4295C20.0898 16.8448 19.8851 17.1412 19.5545 17.4525C19.224 17.7639 18.9092 17.9567 18.4683 18.1181C18.1354 18.2399 17.6352 18.3848 16.7141 18.4244C15.7181 18.4672 15.4194 18.4763 12.8967 18.4763C10.374 18.4763 10.0753 18.4672 9.07932 18.4244C8.15824 18.3848 7.65799 18.2399 7.32511 18.1181C6.88418 17.9567 6.56944 17.7639 6.23892 17.4525C5.90832 17.1412 5.70357 16.8448 5.53219 16.4295C5.40286 16.116 5.24896 15.6449 5.20692 14.7775C5.16147 13.8394 5.15187 13.558 5.15187 11.1823C5.15187 8.80678 5.16147 8.52538 5.20692 7.58723C5.24896 6.71982 5.40286 6.2487 5.53219 5.93519C5.70357 5.5199 5.90832 5.22353 6.23888 4.91221C6.56944 4.60086 6.88418 4.40807 7.32511 4.24667C7.65799 4.12483 8.15824 3.97989 9.07928 3.9403C10.0755 3.8975 10.3742 3.88845 12.8967 3.88845Z" fill="black"/>
<path fill-rule="evenodd" clip-rule="evenodd" d="M12.8966 14.1481C11.1575 14.1481 9.74757 12.8203 9.74757 11.1825C9.74757 9.54458 11.1575 8.21682 12.8966 8.21682C14.6357 8.21682 16.0456 9.54458 16.0456 11.1825C16.0456 12.8203 14.6357 14.1481 12.8966 14.1481ZM12.8966 6.61377C10.2174 6.61377 8.04541 8.65923 8.04541 11.1825C8.04541 13.7057 10.2174 15.7512 12.8966 15.7512C15.5758 15.7512 17.7477 13.7057 17.7477 11.1825C17.7477 8.65923 15.5758 6.61377 12.8966 6.61377Z" fill="black"/>
<path fill-rule="evenodd" clip-rule="evenodd" d="M19.073 6.43313C19.073 7.02278 18.5654 7.50075 17.9393 7.50075C17.3132 7.50075 16.8057 7.02278 16.8057 6.43313C16.8057 5.84349 17.3132 5.36548 17.9393 5.36548C18.5654 5.36548 19.073 5.84349 19.073 6.43313Z" fill="black"/>
</svg>
