<svg width="25" height="24" viewBox="0 0 25 24" fill="none" xmlns="http://www.w3.org/2000/svg">
<g opacity="0.84">
<mask id="mask0_1037_15483" style="mask-type:luminance" maskUnits="userSpaceOnUse" x="3" y="3" width="19" height="18">
<path fill-rule="evenodd" clip-rule="evenodd" d="M3.125 3H21.875V21H3.125V3Z" fill="white"/>
</mask>
<g mask="url(#mask0_1037_15483)">
<path fill-rule="evenodd" clip-rule="evenodd" d="M19.1034 18.338H16.3234V14.1607C16.3234 13.1643 16.305 11.883 14.8782 11.883C13.4309 11.883 13.2101 12.969 13.2101 14.089V18.338H10.4301V9.748H13.0976V10.9227H13.1358C13.5073 10.247 14.4143 9.53533 15.7675 9.53533C18.5836 9.53533 19.1034 11.3137 19.1034 13.6267V18.338ZM7.29495 8.57433C6.40394 8.57433 5.68343 7.88067 5.68343 7.02667C5.68343 6.17167 6.40394 5.478 7.29495 5.478C8.18422 5.478 8.90681 6.17167 8.90681 7.02667C8.90681 7.88067 8.18422 8.57433 7.29495 8.57433ZM5.90392 18.338H8.68597V9.748H5.90392V18.338ZM20.4881 3H4.50908C3.74551 3 3.125 3.58133 3.125 4.298V19.7013C3.125 20.418 3.74551 21 4.50908 21H20.4881C21.2531 21 21.875 20.418 21.875 19.7013V4.298C21.875 3.58133 21.2531 3 20.4881 3Z" fill="black"/>
</g>
</g>
</svg>
