<svg width="25" height="24" viewBox="0 0 25 24" fill="none" xmlns="http://www.w3.org/2000/svg">
<g opacity="0.84">
<path fill-rule="evenodd" clip-rule="evenodd" d="M21.875 3H3.125V21H21.875V3ZM7.44066 8.62485C7.55612 8.72476 7.61508 8.87148 7.59943 9.01992V14.3645C7.63369 14.5573 7.57038 14.7543 7.42889 14.895L6.10577 16.4358V16.639H9.85756V16.4358L8.53444 14.895C8.39192 14.7545 8.32469 14.5589 8.35214 14.3645V9.74231L11.6453 16.639H12.0275L14.856 9.74231V15.2393C14.856 15.3861 14.856 15.4143 14.7561 15.5102L13.7387 16.4584V16.6615H18.6784V16.4584L17.6963 15.5328C17.6097 15.4694 17.5667 15.3651 17.5846 15.2619V8.46119C17.5667 8.35799 17.6097 8.25372 17.6963 8.19029L18.7019 7.26471V7.06154H15.2206L12.739 13.0044L9.91637 7.06154H6.26454V7.26471L7.44066 8.62485Z" fill="black"/>
</g>
</svg>
