<svg width="26" height="24" viewBox="0 0 26 24" fill="none" xmlns="http://www.w3.org/2000/svg">
<path fill-rule="evenodd" clip-rule="evenodd" d="M12.3337 9.00567L12.3733 9.62852L11.7123 9.55225C9.30624 9.25989 7.20423 8.26843 5.41951 6.60329L4.54698 5.77707L4.32224 6.3872C3.84631 7.74728 4.15038 9.18363 5.14189 10.1497C5.67069 10.6835 5.55171 10.7598 4.63952 10.442C4.32224 10.3403 4.04461 10.2641 4.01817 10.3022C3.92563 10.3912 4.24292 11.5479 4.4941 12.0055C4.83782 12.641 5.53849 13.2639 6.30526 13.6325L6.95305 13.9248L6.18628 13.9376C5.44595 13.9376 5.41951 13.9503 5.49883 14.2172C5.76324 15.0434 6.80763 15.9205 7.971 16.3018L8.79065 16.5687L8.07676 16.9755C7.01915 17.5602 5.77646 17.8907 4.53376 17.9161C3.93885 17.9288 3.44971 17.9797 3.44971 18.0178C3.44971 18.1449 5.06257 18.8567 6.0012 19.1364C8.81709 19.9626 12.1618 19.6067 14.6736 18.1958C16.4583 17.1916 18.2431 15.1959 19.0759 13.2639C19.5254 12.2343 19.9749 10.353 19.9749 9.45056C19.9749 8.86585 20.0146 8.78959 20.7549 8.09048C21.1912 7.68373 21.601 7.23884 21.6803 7.11173C21.8125 6.87022 21.7993 6.87022 21.1251 7.08631C20.0013 7.46764 19.8427 7.4168 20.398 6.8448C20.8078 6.43805 21.2969 5.70081 21.2969 5.48472C21.2969 5.44659 21.0986 5.51014 20.8739 5.62454C20.6359 5.75165 20.1071 5.94232 19.7105 6.05671L18.9966 6.2728L18.3488 5.85334C17.9919 5.62454 17.4895 5.37032 17.2251 5.29405C16.5509 5.1161 15.5197 5.14152 14.9116 5.3449C13.2591 5.91689 12.2147 7.39137 12.3337 9.00567Z" fill="black"/>
</svg>
