<svg width="46" height="11" viewBox="0 0 46 11" fill="none" xmlns="http://www.w3.org/2000/svg">
<path opacity="0.84" d="M2.14666 10H0.318537L3.64702 0.545454H5.76136L9.09446 10H7.26634L4.74112 2.48438H4.66726L2.14666 10ZM2.20668 6.29297H7.19247V7.66868H2.20668V6.29297ZM10.3398 10V0.545454H13.9591C14.6423 0.545454 15.2101 0.653172 15.6626 0.868607C16.118 1.08097 16.4581 1.3718 16.6828 1.74112C16.9105 2.11044 17.0244 2.529 17.0244 2.9968C17.0244 3.38151 16.9506 3.71082 16.8028 3.98473C16.6551 4.25556 16.4566 4.47562 16.2073 4.64489C15.958 4.81416 15.6795 4.93572 15.3717 5.00959V5.10192C15.7072 5.12038 16.0288 5.22348 16.3366 5.41122C16.6474 5.59588 16.9013 5.85748 17.0983 6.19602C17.2952 6.53456 17.3937 6.94389 17.3937 7.42401C17.3937 7.91335 17.2752 8.35346 17.0383 8.74432C16.8013 9.1321 16.4443 9.43833 15.9672 9.663C15.4902 9.88767 14.8901 10 14.1668 10H10.3398ZM12.0525 8.56889H13.8944C14.5161 8.56889 14.9639 8.4504 15.2378 8.21342C15.5148 7.97337 15.6533 7.6656 15.6533 7.29013C15.6533 7.01006 15.5841 6.75769 15.4456 6.53303C15.3071 6.30528 15.1101 6.12678 14.8547 5.99751C14.5992 5.86518 14.2945 5.79901 13.9406 5.79901H12.0525V8.56889ZM12.0525 4.56641H13.7467C14.0422 4.56641 14.3084 4.51255 14.5454 4.40483C14.7823 4.29403 14.9685 4.13861 15.104 3.93857C15.2425 3.73544 15.3117 3.49538 15.3117 3.21839C15.3117 2.85215 15.1824 2.55054 14.9239 2.31356C14.6685 2.07659 14.2884 1.9581 13.7836 1.9581H12.0525V4.56641ZM27.3319 5.27273C27.3319 6.29143 27.141 7.16394 26.7594 7.89027C26.3809 8.61352 25.8638 9.1675 25.2083 9.5522C24.5558 9.93691 23.8156 10.1293 22.9877 10.1293C22.1599 10.1293 21.4181 9.93691 20.7626 9.5522C20.1101 9.16442 19.5931 8.6089 19.2115 7.88565C18.8329 7.15933 18.6436 6.28835 18.6436 5.27273C18.6436 4.25402 18.8329 3.38305 19.2115 2.6598C19.5931 1.93348 20.1101 1.37796 20.7626 0.993252C21.4181 0.608546 22.1599 0.416193 22.9877 0.416193C23.8156 0.416193 24.5558 0.608546 25.2083 0.993252C25.8638 1.37796 26.3809 1.93348 26.7594 2.6598C27.141 3.38305 27.3319 4.25402 27.3319 5.27273ZM25.6099 5.27273C25.6099 4.55563 25.4976 3.95088 25.2729 3.45845C25.0513 2.96295 24.7435 2.58902 24.3496 2.33665C23.9557 2.0812 23.5017 1.95348 22.9877 1.95348C22.4738 1.95348 22.0198 2.0812 21.6259 2.33665C21.2319 2.58902 20.9226 2.96295 20.698 3.45845C20.4764 3.95088 20.3656 4.55563 20.3656 5.27273C20.3656 5.98982 20.4764 6.59612 20.698 7.09162C20.9226 7.58404 21.2319 7.95798 21.6259 8.21342C22.0198 8.46579 22.4738 8.59197 22.9877 8.59197C23.5017 8.59197 23.9557 8.46579 24.3496 8.21342C24.7435 7.95798 25.0513 7.58404 25.2729 7.09162C25.4976 6.59612 25.6099 5.98982 25.6099 5.27273ZM34.911 0.545454H36.6237V6.7223C36.6237 7.39938 36.4636 7.99491 36.1436 8.50888C35.8266 9.02285 35.3803 9.42448 34.8048 9.71378C34.2293 10 33.5568 10.1431 32.7874 10.1431C32.0149 10.1431 31.3409 10 30.7654 9.71378C30.1898 9.42448 29.7436 9.02285 29.4266 8.50888C29.1096 7.99491 28.9511 7.39938 28.9511 6.7223V0.545454H30.6638V6.57919C30.6638 6.97313 30.75 7.32398 30.9223 7.63175C31.0977 7.93951 31.344 8.18111 31.661 8.35653C31.978 8.52888 32.3534 8.61506 32.7874 8.61506C33.2213 8.61506 33.5968 8.52888 33.9138 8.35653C34.2339 8.18111 34.4801 7.93951 34.6524 7.63175C34.8248 7.32398 34.911 6.97313 34.911 6.57919V0.545454ZM38.0698 1.98118V0.545454H45.6131V1.98118H42.6909V10H40.992V1.98118H38.0698Z" fill="black"/>
</svg>
