<svg width="94" height="11" viewBox="0 0 94 11" fill="none" xmlns="http://www.w3.org/2000/svg">
<path opacity="0.84" d="M9.02521 3.73544H7.29865C7.24941 3.4523 7.15862 3.20147 7.02628 2.98295C6.89394 2.76136 6.72929 2.57363 6.53232 2.41974C6.33535 2.26586 6.11068 2.15045 5.85831 2.07351C5.60902 1.99349 5.33973 1.95348 5.05043 1.95348C4.53646 1.95348 4.08097 2.08274 3.68395 2.34126C3.28693 2.59671 2.97609 2.97218 2.75142 3.46768C2.52675 3.96011 2.41442 4.56179 2.41442 5.27273C2.41442 5.99598 2.52675 6.60535 2.75142 7.10085C2.97917 7.59328 3.29001 7.96567 3.68395 8.21804C4.08097 8.46733 4.53492 8.59197 5.04581 8.59197C5.32895 8.59197 5.59363 8.55504 5.83984 8.48118C6.08913 8.40424 6.31226 8.2919 6.50923 8.14418C6.70928 7.99645 6.87701 7.81487 7.01243 7.59943C7.15092 7.384 7.24633 7.13778 7.29865 6.8608L9.02521 6.87003C8.96058 7.31937 8.82055 7.741 8.60511 8.13494C8.39276 8.52888 8.11423 8.87666 7.76953 9.17827C7.42483 9.4768 7.02166 9.7107 6.56001 9.87997C6.09837 10.0462 5.58594 10.1293 5.02273 10.1293C4.19176 10.1293 3.45005 9.93691 2.79759 9.5522C2.14512 9.1675 1.63116 8.61198 1.25568 7.88565C0.880208 7.15933 0.692472 6.28835 0.692472 5.27273C0.692472 4.25402 0.881747 3.38305 1.2603 2.6598C1.63885 1.93348 2.15436 1.37796 2.80682 0.993252C3.45928 0.608546 4.19792 0.416193 5.02273 0.416193C5.54901 0.416193 6.03835 0.490056 6.49077 0.637784C6.94318 0.785511 7.34635 1.00249 7.70028 1.28871C8.05421 1.57185 8.34505 1.91963 8.5728 2.33203C8.80362 2.74136 8.95443 3.20916 9.02521 3.73544ZM11.6935 10H9.86541L13.1939 0.545454H15.3082L18.6413 10H16.8132L14.288 2.48438H14.2141L11.6935 10ZM11.7536 6.29297H16.7393V7.66868H11.7536V6.29297ZM24.8724 3.14453C24.8293 2.74136 24.6478 2.42744 24.3277 2.20277C24.0107 1.9781 23.5983 1.86577 23.0905 1.86577C22.7335 1.86577 22.4272 1.91963 22.1718 2.02734C21.9163 2.13506 21.7209 2.28125 21.5855 2.46591C21.4501 2.65057 21.3808 2.86139 21.3778 3.09837C21.3778 3.29534 21.4224 3.46615 21.5116 3.6108C21.604 3.75544 21.7286 3.87855 21.8856 3.98011C22.0425 4.0786 22.2164 4.16169 22.4072 4.2294C22.598 4.29711 22.7904 4.35405 22.9843 4.40021L23.8706 4.6218C24.2277 4.7049 24.5708 4.81723 24.9001 4.95881C25.2325 5.10038 25.5295 5.27888 25.7911 5.49432C26.0558 5.70975 26.2651 5.96982 26.4189 6.2745C26.5728 6.57919 26.6498 6.9362 26.6498 7.34553C26.6498 7.8995 26.5082 8.38731 26.2251 8.80895C25.9419 9.22751 25.5326 9.55528 24.9971 9.79226C24.4646 10.0262 23.8199 10.1431 23.0628 10.1431C22.3272 10.1431 21.6886 10.0292 21.1469 9.80149C20.6083 9.57375 20.1867 9.24136 19.882 8.80433C19.5804 8.36731 19.4173 7.83487 19.3927 7.20703H21.0777C21.1023 7.53634 21.2039 7.81025 21.3824 8.02876C21.5609 8.24728 21.7932 8.41039 22.0795 8.51811C22.3688 8.62583 22.6919 8.67969 23.0489 8.67969C23.4213 8.67969 23.7475 8.62429 24.0276 8.51349C24.3108 8.39962 24.5323 8.24266 24.6924 8.04261C24.8524 7.83949 24.934 7.60251 24.9371 7.33168C24.934 7.08546 24.8617 6.88234 24.7201 6.7223C24.5785 6.55919 24.38 6.42377 24.1246 6.31605C23.8722 6.20526 23.5767 6.10677 23.2382 6.0206L22.1626 5.74361C21.3839 5.54356 20.7684 5.24041 20.316 4.83416C19.8666 4.42483 19.642 3.88163 19.642 3.20454C19.642 2.64749 19.7928 2.15968 20.0944 1.74112C20.3991 1.32256 20.813 0.997869 21.3362 0.767045C21.8594 0.533144 22.4519 0.416193 23.1135 0.416193C23.7845 0.416193 24.3723 0.533144 24.877 0.767045C25.3849 0.997869 25.7834 1.31948 26.0727 1.73189C26.362 2.14122 26.5113 2.6121 26.5205 3.14453H24.8724ZM28.1767 10V0.545454H34.3258V1.98118H29.8894V4.54794H34.0073V5.98366H29.8894V8.56428H34.3627V10H28.1767ZM44.4359 3.14453C44.3928 2.74136 44.2112 2.42744 43.8912 2.20277C43.5742 1.9781 43.1618 1.86577 42.6539 1.86577C42.2969 1.86577 41.9907 1.91963 41.7353 2.02734C41.4798 2.13506 41.2844 2.28125 41.149 2.46591C41.0136 2.65057 40.9443 2.86139 40.9412 3.09837C40.9412 3.29534 40.9859 3.46615 41.0751 3.6108C41.1674 3.75544 41.2921 3.87855 41.449 3.98011C41.606 4.0786 41.7799 4.16169 41.9707 4.2294C42.1615 4.29711 42.3539 4.35405 42.5478 4.40021L43.4341 4.6218C43.7911 4.7049 44.1343 4.81723 44.4636 4.95881C44.796 5.10038 45.093 5.27888 45.3546 5.49432C45.6193 5.70975 45.8285 5.96982 45.9824 6.2745C46.1363 6.57919 46.2132 6.9362 46.2132 7.34553C46.2132 7.8995 46.0717 8.38731 45.7885 8.80895C45.5054 9.22751 45.0961 9.55528 44.5605 9.79226C44.0281 10.0262 43.3833 10.1431 42.6262 10.1431C41.8907 10.1431 41.2521 10.0292 40.7104 9.80149C40.1718 9.57375 39.7502 9.24136 39.4455 8.80433C39.1439 8.36731 38.9808 7.83487 38.9561 7.20703H40.6412C40.6658 7.53634 40.7673 7.81025 40.9458 8.02876C41.1243 8.24728 41.3567 8.41039 41.6429 8.51811C41.9322 8.62583 42.2554 8.67969 42.6124 8.67969C42.9848 8.67969 43.311 8.62429 43.5911 8.51349C43.8742 8.39962 44.0958 8.24266 44.2559 8.04261C44.4159 7.83949 44.4975 7.60251 44.5005 7.33168C44.4975 7.08546 44.4251 6.88234 44.2836 6.7223C44.142 6.55919 43.9435 6.42377 43.688 6.31605C43.4357 6.20526 43.1402 6.10677 42.8017 6.0206L41.726 5.74361C40.9474 5.54356 40.3319 5.24041 39.8794 4.83416C39.4301 4.42483 39.2054 3.88163 39.2054 3.20454C39.2054 2.64749 39.3562 2.15968 39.6578 1.74112C39.9625 1.32256 40.3765 0.997869 40.8997 0.767045C41.4229 0.533144 42.0153 0.416193 42.677 0.416193C43.348 0.416193 43.9358 0.533144 44.4405 0.767045C44.9483 0.997869 45.3469 1.31948 45.6362 1.73189C45.9255 2.14122 46.0748 2.6121 46.084 3.14453H44.4359ZM47.3247 1.98118V0.545454H54.868V1.98118H51.9458V10H50.2469V1.98118H47.3247ZM62.282 0.545454H63.9948V6.7223C63.9948 7.39938 63.8347 7.99491 63.5146 8.50888C63.1977 9.02285 62.7514 9.42448 62.1759 9.71378C61.6003 10 60.9279 10.1431 60.1585 10.1431C59.386 10.1431 58.712 10 58.1365 9.71378C57.5609 9.42448 57.1147 9.02285 56.7977 8.50888C56.4807 7.99491 56.3222 7.39938 56.3222 6.7223V0.545454H58.0349V6.57919C58.0349 6.97313 58.1211 7.32398 58.2934 7.63175C58.4688 7.93951 58.7151 8.18111 59.032 8.35653C59.349 8.52888 59.7245 8.61506 60.1585 8.61506C60.5924 8.61506 60.9679 8.52888 61.2849 8.35653C61.605 8.18111 61.8512 7.93951 62.0235 7.63175C62.1959 7.32398 62.282 6.97313 62.282 6.57919V0.545454ZM69.0602 10H65.8564V0.545454H69.1248C70.0635 0.545454 70.8699 0.73473 71.5439 1.11328C72.2209 1.48875 72.7411 2.02888 73.1042 2.73366C73.4674 3.43845 73.649 4.28172 73.649 5.26349C73.649 6.24834 73.4659 7.0947 73.0996 7.80256C72.7364 8.51042 72.2117 9.05362 71.5254 9.43217C70.8422 9.81072 70.0204 10 69.0602 10ZM67.5691 8.51811H68.9771C69.6357 8.51811 70.1851 8.39808 70.6252 8.15803C71.0653 7.91489 71.3961 7.55327 71.6177 7.07315C71.8393 6.58996 71.9501 5.98674 71.9501 5.26349C71.9501 4.54025 71.8393 3.9401 71.6177 3.46307C71.3961 2.98295 71.0684 2.62441 70.6344 2.38743C70.2035 2.14737 69.668 2.02734 69.0279 2.02734H67.5691V8.51811ZM76.989 0.545454V10H75.2763V0.545454H76.989ZM78.8437 10V0.545454H84.9928V1.98118H80.5564V4.54794H84.6743V5.98366H80.5564V8.56428H85.0297V10H78.8437ZM91.8783 3.14453C91.8352 2.74136 91.6536 2.42744 91.3335 2.20277C91.0165 1.9781 90.6041 1.86577 90.0963 1.86577C89.7393 1.86577 89.4331 1.91963 89.1776 2.02734C88.9222 2.13506 88.7268 2.28125 88.5914 2.46591C88.4559 2.65057 88.3867 2.86139 88.3836 3.09837C88.3836 3.29534 88.4282 3.46615 88.5175 3.6108C88.6098 3.75544 88.7345 3.87855 88.8914 3.98011C89.0484 4.0786 89.2223 4.16169 89.4131 4.2294C89.6039 4.29711 89.7963 4.35405 89.9901 4.40021L90.8765 4.6218C91.2335 4.7049 91.5767 4.81723 91.906 4.95881C92.2384 5.10038 92.5354 5.27888 92.797 5.49432C93.0616 5.70975 93.2709 5.96982 93.4248 6.2745C93.5787 6.57919 93.6556 6.9362 93.6556 7.34553C93.6556 7.8995 93.5141 8.38731 93.2309 8.80895C92.9478 9.22751 92.5384 9.55528 92.0029 9.79226C91.4705 10.0262 90.8257 10.1431 90.0686 10.1431C89.3331 10.1431 88.6945 10.0292 88.1528 9.80149C87.6142 9.57375 87.1926 9.24136 86.8879 8.80433C86.5863 8.36731 86.4231 7.83487 86.3985 7.20703H88.0835C88.1082 7.53634 88.2097 7.81025 88.3882 8.02876C88.5667 8.24728 88.7991 8.41039 89.0853 8.51811C89.3746 8.62583 89.6978 8.67969 90.0548 8.67969C90.4272 8.67969 90.7534 8.62429 91.0335 8.51349C91.3166 8.39962 91.5382 8.24266 91.6982 8.04261C91.8583 7.83949 91.9398 7.60251 91.9429 7.33168C91.9398 7.08546 91.8675 6.88234 91.7259 6.7223C91.5844 6.55919 91.3859 6.42377 91.1304 6.31605C90.878 6.20526 90.5826 6.10677 90.2441 6.0206L89.1684 5.74361C88.3898 5.54356 87.7742 5.24041 87.3218 4.83416C86.8725 4.42483 86.6478 3.88163 86.6478 3.20454C86.6478 2.64749 86.7986 2.15968 87.1002 1.74112C87.4049 1.32256 87.8189 0.997869 88.3421 0.767045C88.8653 0.533144 89.4577 0.416193 90.1194 0.416193C90.7903 0.416193 91.3782 0.533144 91.8829 0.767045C92.3907 0.997869 92.7893 1.31948 93.0786 1.73189C93.3679 2.14122 93.5171 2.6121 93.5264 3.14453H91.8783Z" fill="black"/>
</svg>
