<svg width="64" height="11" viewBox="0 0 64 11" fill="none" xmlns="http://www.w3.org/2000/svg">
<path opacity="0.84" d="M9.02521 3.73544H7.29865C7.24941 3.4523 7.15862 3.20147 7.02628 2.98295C6.89394 2.76136 6.72929 2.57363 6.53232 2.41974C6.33535 2.26586 6.11068 2.15045 5.85831 2.07351C5.60902 1.99349 5.33973 1.95348 5.05043 1.95348C4.53646 1.95348 4.08097 2.08274 3.68395 2.34126C3.28693 2.59671 2.97609 2.97218 2.75142 3.46768C2.52675 3.96011 2.41442 4.56179 2.41442 5.27273C2.41442 5.99598 2.52675 6.60535 2.75142 7.10085C2.97917 7.59328 3.29001 7.96567 3.68395 8.21804C4.08097 8.46733 4.53492 8.59197 5.04581 8.59197C5.32895 8.59197 5.59363 8.55504 5.83984 8.48118C6.08913 8.40424 6.31226 8.2919 6.50923 8.14418C6.70928 7.99645 6.87701 7.81487 7.01243 7.59943C7.15092 7.384 7.24633 7.13778 7.29865 6.8608L9.02521 6.87003C8.96058 7.31937 8.82055 7.741 8.60511 8.13494C8.39276 8.52888 8.11423 8.87666 7.76953 9.17827C7.42483 9.4768 7.02166 9.7107 6.56001 9.87997C6.09837 10.0462 5.58594 10.1293 5.02273 10.1293C4.19176 10.1293 3.45005 9.93691 2.79759 9.5522C2.14512 9.1675 1.63116 8.61198 1.25568 7.88565C0.880208 7.15933 0.692472 6.28835 0.692472 5.27273C0.692472 4.25402 0.881747 3.38305 1.2603 2.6598C1.63885 1.93348 2.15436 1.37796 2.80682 0.993252C3.45928 0.608546 4.19792 0.416193 5.02273 0.416193C5.54901 0.416193 6.03835 0.490056 6.49077 0.637784C6.94318 0.785511 7.34635 1.00249 7.70028 1.28871C8.05421 1.57185 8.34505 1.91963 8.5728 2.33203C8.80362 2.74136 8.95443 3.20916 9.02521 3.73544ZM19.0418 5.27273C19.0418 6.29143 18.851 7.16394 18.4694 7.89027C18.0908 8.61352 17.5738 9.1675 16.9182 9.5522C16.2658 9.93691 15.5256 10.1293 14.6977 10.1293C13.8698 10.1293 13.1281 9.93691 12.4726 9.5522C11.8201 9.16442 11.3031 8.6089 10.9214 7.88565C10.5429 7.15933 10.3536 6.28835 10.3536 5.27273C10.3536 4.25402 10.5429 3.38305 10.9214 2.6598C11.3031 1.93348 11.8201 1.37796 12.4726 0.993252C13.1281 0.608546 13.8698 0.416193 14.6977 0.416193C15.5256 0.416193 16.2658 0.608546 16.9182 0.993252C17.5738 1.37796 18.0908 1.93348 18.4694 2.6598C18.851 3.38305 19.0418 4.25402 19.0418 5.27273ZM17.3199 5.27273C17.3199 4.55563 17.2075 3.95088 16.9829 3.45845C16.7613 2.96295 16.4535 2.58902 16.0596 2.33665C15.6656 2.0812 15.2117 1.95348 14.6977 1.95348C14.1837 1.95348 13.7298 2.0812 13.3358 2.33665C12.9419 2.58902 12.6326 2.96295 12.4079 3.45845C12.1863 3.95088 12.0756 4.55563 12.0756 5.27273C12.0756 5.98982 12.1863 6.59612 12.4079 7.09162C12.6326 7.58404 12.9419 7.95798 13.3358 8.21342C13.7298 8.46579 14.1837 8.59197 14.6977 8.59197C15.2117 8.59197 15.6656 8.46579 16.0596 8.21342C16.4535 7.95798 16.7613 7.58404 16.9829 7.09162C17.2075 6.59612 17.3199 5.98982 17.3199 5.27273ZM28.4306 0.545454V10H26.9071L22.4522 3.56001H22.3738V10H20.661V0.545454H22.1937L26.644 6.99006H26.7271V0.545454H28.4306ZM29.8813 1.98118V0.545454H37.4246V1.98118H34.5024V10H32.8035V1.98118H29.8813ZM38.9504 10H37.1222L40.4507 0.545454H42.5651L45.8982 10H44.07L41.5448 2.48438H41.471L38.9504 10ZM39.0104 6.29297H43.9962V7.66868H39.0104V6.29297ZM54.7918 3.73544H53.0653C53.016 3.4523 52.9252 3.20147 52.7929 2.98295C52.6605 2.76136 52.4959 2.57363 52.2989 2.41974C52.1019 2.26586 51.8773 2.15045 51.6249 2.07351C51.3756 1.99349 51.1063 1.95348 50.817 1.95348C50.3031 1.95348 49.8476 2.08274 49.4506 2.34126C49.0535 2.59671 48.7427 2.97218 48.518 3.46768C48.2934 3.96011 48.181 4.56179 48.181 5.27273C48.181 5.99598 48.2934 6.60535 48.518 7.10085C48.7458 7.59328 49.0566 7.96567 49.4506 8.21804C49.8476 8.46733 50.3015 8.59197 50.8124 8.59197C51.0956 8.59197 51.3602 8.55504 51.6064 8.48118C51.8557 8.40424 52.0789 8.2919 52.2758 8.14418C52.4759 7.99645 52.6436 7.81487 52.779 7.59943C52.9175 7.384 53.0129 7.13778 53.0653 6.8608L54.7918 6.87003C54.7272 7.31937 54.5872 7.741 54.3717 8.13494C54.1594 8.52888 53.8808 8.87666 53.5361 9.17827C53.1914 9.4768 52.7883 9.7107 52.3266 9.87997C51.865 10.0462 51.3525 10.1293 50.7893 10.1293C49.9584 10.1293 49.2166 9.93691 48.5642 9.5522C47.9117 9.1675 47.3978 8.61198 47.0223 7.88565C46.6468 7.15933 46.4591 6.28835 46.4591 5.27273C46.4591 4.25402 46.6483 3.38305 47.0269 2.6598C47.4055 1.93348 47.921 1.37796 48.5734 0.993252C49.2259 0.608546 49.9645 0.416193 50.7893 0.416193C51.3156 0.416193 51.805 0.490056 52.2574 0.637784C52.7098 0.785511 53.113 1.00249 53.4669 1.28871C53.8208 1.57185 54.1117 1.91963 54.3394 2.33203C54.5702 2.74136 54.721 3.20916 54.7918 3.73544ZM55.9448 1.98118V0.545454H63.4881V1.98118H60.5659V10H58.867V1.98118H55.9448Z" fill="black"/>
</svg>
