<svg width="117" height="11" viewBox="0 0 117 11" fill="none" xmlns="http://www.w3.org/2000/svg">
<path opacity="0.84" d="M7.26634 3.56463C7.18939 3.31534 7.08322 3.09221 6.9478 2.89524C6.81546 2.69519 6.65542 2.52438 6.46768 2.38281C6.28303 2.24124 6.07067 2.13506 5.83061 2.06428C5.59055 1.99041 5.32895 1.95348 5.04581 1.95348C4.538 1.95348 4.08558 2.0812 3.68857 2.33665C3.29155 2.59209 2.97917 2.96757 2.75142 3.46307C2.52675 3.95549 2.41442 4.55563 2.41442 5.26349C2.41442 5.97751 2.52675 6.58227 2.75142 7.07777C2.97609 7.57327 3.28847 7.95028 3.68857 8.20881C4.08866 8.46425 4.55339 8.59197 5.08274 8.59197C5.56286 8.59197 5.97834 8.49964 6.32919 8.31499C6.68312 8.13033 6.95549 7.86873 7.14631 7.53018C7.33712 7.18857 7.43253 6.78847 7.43253 6.3299L7.82031 6.38991H5.25355V5.05114H9.08984V6.18679C9.08984 6.99621 8.9175 7.69638 8.5728 8.28729C8.2281 8.8782 7.75414 9.33369 7.15092 9.65376C6.5477 9.97076 5.85523 10.1293 5.07351 10.1293C4.20253 10.1293 3.43774 9.93383 2.77912 9.54297C2.12358 9.14903 1.61115 8.59044 1.24183 7.86719C0.875592 7.14086 0.692472 6.27912 0.692472 5.28196C0.692472 4.5187 0.800189 3.837 1.01562 3.23686C1.23414 2.63672 1.53883 2.12737 1.92969 1.70881C2.32055 1.28717 2.77912 0.967092 3.3054 0.748579C3.83168 0.526988 4.40412 0.416193 5.02273 0.416193C5.54593 0.416193 6.03374 0.493134 6.48615 0.647017C6.93857 0.797822 7.3402 1.01326 7.69105 1.29332C8.04498 1.57339 8.33582 1.90578 8.56357 2.29048C8.79131 2.67519 8.94058 3.09991 9.01136 3.56463H7.26634ZM10.746 10V0.545454H16.8952V1.98118H12.4587V4.54794H16.5766V5.98366H12.4587V8.56428H16.9321V10H10.746ZM18.227 1.98118V0.545454H25.7703V1.98118H22.8481V10H21.1492V1.98118H18.227ZM31.6633 10H29.8351L33.1636 0.545454H35.278L38.6111 10H36.7829L34.2577 2.48438H34.1839L31.6633 10ZM31.7233 6.29297H36.7091V7.66868H31.7233V6.29297ZM47.6259 0.545454V10H46.1025L41.6475 3.56001H41.5691V10H39.8564V0.545454H41.389L45.8393 6.99006H45.9224V0.545454H47.6259ZM52.7167 10V0.545454H58.8659V1.98118H54.4294V4.54794H58.5473V5.98366H54.4294V8.56428H58.9028V10H52.7167ZM65.7513 3.14453C65.7082 2.74136 65.5267 2.42744 65.2066 2.20277C64.8896 1.9781 64.4772 1.86577 63.9694 1.86577C63.6124 1.86577 63.3061 1.91963 63.0507 2.02734C62.7952 2.13506 62.5998 2.28125 62.4644 2.46591C62.329 2.65057 62.2597 2.86139 62.2567 3.09837C62.2567 3.29534 62.3013 3.46615 62.3905 3.6108C62.4829 3.75544 62.6075 3.87855 62.7645 3.98011C62.9214 4.0786 63.0953 4.16169 63.2861 4.2294C63.4769 4.29711 63.6693 4.35405 63.8632 4.40021L64.7496 4.6218C65.1066 4.7049 65.4497 4.81723 65.779 4.95881C66.1114 5.10038 66.4084 5.27888 66.67 5.49432C66.9347 5.70975 67.144 5.96982 67.2979 6.2745C67.4517 6.57919 67.5287 6.9362 67.5287 7.34553C67.5287 7.8995 67.3871 8.38731 67.104 8.80895C66.8208 9.22751 66.4115 9.55528 65.876 9.79226C65.3435 10.0262 64.6988 10.1431 63.9417 10.1431C63.2061 10.1431 62.5675 10.0292 62.0258 9.80149C61.4872 9.57375 61.0656 9.24136 60.7609 8.80433C60.4593 8.36731 60.2962 7.83487 60.2716 7.20703H61.9566C61.9812 7.53634 62.0828 7.81025 62.2613 8.02876C62.4398 8.24728 62.6721 8.41039 62.9584 8.51811C63.2477 8.62583 63.5708 8.67969 63.9278 8.67969C64.3002 8.67969 64.6265 8.62429 64.9065 8.51349C65.1897 8.39962 65.4113 8.24266 65.5713 8.04261C65.7313 7.83949 65.8129 7.60251 65.816 7.33168C65.8129 7.08546 65.7406 6.88234 65.599 6.7223C65.4574 6.55919 65.2589 6.42377 65.0035 6.31605C64.7511 6.20526 64.4556 6.10677 64.1171 6.0206L63.0415 5.74361C62.2628 5.54356 61.6473 5.24041 61.1949 4.83416C60.7455 4.42483 60.5209 3.88163 60.5209 3.20454C60.5209 2.64749 60.6717 2.15968 60.9733 1.74112C61.278 1.32256 61.6919 0.997869 62.2151 0.767045C62.7383 0.533144 63.3308 0.416193 63.9925 0.416193C64.6634 0.416193 65.2512 0.533144 65.7559 0.767045C66.2638 0.997869 66.6623 1.31948 66.9516 1.73189C67.2409 2.14122 67.3902 2.6121 67.3994 3.14453H65.7513ZM68.6401 1.98118V0.545454H76.1834V1.98118H73.2612V10H71.5623V1.98118H68.6401ZM79.3503 0.545454V10H77.6376V0.545454H79.3503ZM81.205 0.545454H83.3009L86.1077 7.39631H86.2185L89.0253 0.545454H91.1212V10H89.4777V3.50462H89.39L86.7771 9.9723H85.5491L82.9362 3.49077H82.8485V10H81.205V0.545454ZM94.2004 10H92.3722L95.7007 0.545454H97.8151L101.148 10H99.32L96.7948 2.48438H96.721L94.2004 10ZM94.2604 6.29297H99.2462V7.66868H94.2604V6.29297ZM100.835 1.98118V0.545454H108.379V1.98118H105.456V10H103.758V1.98118H100.835ZM109.833 10V0.545454H115.982V1.98118H111.546V4.54794H115.664V5.98366H111.546V8.56428H116.019V10H109.833Z" fill="black"/>
</svg>
