<svg width="39" height="11" viewBox="0 0 39 11" fill="none" xmlns="http://www.w3.org/2000/svg">
<path opacity="0.84" d="M0.932528 10V0.545454H2.64524V4.54794H7.02628V0.545454H8.74361V10H7.02628V5.98366H2.64524V10H0.932528ZM19.0545 5.27273C19.0545 6.29143 18.8637 7.16394 18.4821 7.89027C18.1035 8.61352 17.5865 9.1675 16.9309 9.5522C16.2785 9.93691 15.5383 10.1293 14.7104 10.1293C13.8825 10.1293 13.1408 9.93691 12.4853 9.5522C11.8328 9.16442 11.3158 8.6089 10.9341 7.88565C10.5556 7.15933 10.3663 6.28835 10.3663 5.27273C10.3663 4.25402 10.5556 3.38305 10.9341 2.6598C11.3158 1.93348 11.8328 1.37796 12.4853 0.993252C13.1408 0.608546 13.8825 0.416193 14.7104 0.416193C15.5383 0.416193 16.2785 0.608546 16.9309 0.993252C17.5865 1.37796 18.1035 1.93348 18.4821 2.6598C18.8637 3.38305 19.0545 4.25402 19.0545 5.27273ZM17.3326 5.27273C17.3326 4.55563 17.2202 3.95088 16.9956 3.45845C16.774 2.96295 16.4662 2.58902 16.0723 2.33665C15.6783 2.0812 15.2244 1.95348 14.7104 1.95348C14.1964 1.95348 13.7425 2.0812 13.3485 2.33665C12.9546 2.58902 12.6453 2.96295 12.4206 3.45845C12.199 3.95088 12.0882 4.55563 12.0882 5.27273C12.0882 5.98982 12.199 6.59612 12.4206 7.09162C12.6453 7.58404 12.9546 7.95798 13.3485 8.21342C13.7425 8.46579 14.1964 8.59197 14.7104 8.59197C15.2244 8.59197 15.6783 8.46579 16.0723 8.21342C16.4662 7.95798 16.774 7.58404 16.9956 7.09162C17.2202 6.59612 17.3326 5.98982 17.3326 5.27273ZM20.6737 0.545454H22.7696L25.5764 7.39631H25.6872L28.4941 0.545454H30.5899V10H28.9465V3.50462H28.8588L26.2458 9.9723H25.0178L22.4049 3.49077H22.3172V10H20.6737V0.545454ZM32.455 10V0.545454H38.6041V1.98118H34.1677V4.54794H38.2856V5.98366H34.1677V8.56428H38.6411V10H32.455Z" fill="black"/>
</svg>
