<svg width="92" height="18" viewBox="0 0 92 18" fill="none" xmlns="http://www.w3.org/2000/svg">
<path fill-rule="evenodd" clip-rule="evenodd" d="M0.367676 0.873779V17.1836H11.712V13.751H4.74218V0.873779H0.367676Z" fill="black"/>
<path fill-rule="evenodd" clip-rule="evenodd" d="M26.6072 17.1835L25.2084 13.9816H18.239L16.9163 17.1835H12.1851L19.7391 0.874023H23.9618L31.4398 17.1835H26.6072ZM21.7746 5.22809L19.4852 10.8257H24.0127L21.7746 5.22809Z" fill="black"/>
<path fill-rule="evenodd" clip-rule="evenodd" d="M39.3934 10.2727V17.1835H35.0438V10.2727L28.2778 0.874023H33.5433L37.384 6.90938L41.2251 0.874023H46.3124L39.3934 10.2727Z" fill="black"/>
<path fill-rule="evenodd" clip-rule="evenodd" d="M47.4922 17.1835V0.874023H59.5997V4.19126H51.6893V7.2782H59.1668V10.434H51.6893V13.8202H60.0574V17.1835H47.4922Z" fill="black"/>
<path fill-rule="evenodd" clip-rule="evenodd" d="M72.3631 17.1832L68.4533 10.7102H66.9707V17.1832H62.7231V0.873779H69.5912C70.4554 0.873779 71.299 0.954645 72.122 1.11567C72.9439 1.27705 73.6819 1.54988 74.3349 1.93347C74.9875 2.31775 75.5085 2.82439 75.8994 3.45373C76.2888 4.08378 76.4837 4.86711 76.4837 5.80374C76.4837 6.90914 76.1533 7.83874 75.4918 8.59113C74.8307 9.34353 73.9148 9.88076 72.7451 10.2035L77.4504 17.1832H72.3631ZM72.1853 5.87266C72.1853 5.48907 72.0952 5.17792 71.9167 4.93989C71.7377 4.70187 71.5075 4.51764 71.2264 4.38685C70.9449 4.25676 70.6297 4.16781 70.2811 4.1221C69.9317 4.07569 69.5947 4.05284 69.2713 4.05284H66.9455V7.85385H69.0159C69.3734 7.85385 69.7399 7.82713 70.1149 7.77299C70.4895 7.71955 70.8304 7.62321 71.1371 7.48504C71.4442 7.34686 71.6954 7.14751 71.891 6.88628C72.0871 6.62541 72.1853 6.28753 72.1853 5.87266Z" fill="black"/>
<path fill-rule="evenodd" clip-rule="evenodd" d="M88.7719 5.11249C88.3988 4.68285 87.9108 4.34076 87.309 4.08726C86.7073 3.83412 86.1269 3.70755 85.5671 3.70755C85.2782 3.70755 84.9859 3.7304 84.6893 3.77646C84.3923 3.82252 84.1252 3.91112 83.8884 4.04121C83.6504 4.172 83.4513 4.34076 83.2905 4.5482C83.1287 4.75528 83.0487 5.02038 83.0487 5.34314C83.0487 5.61913 83.1123 5.84977 83.2397 6.03401C83.3666 6.21824 83.5534 6.37962 83.7991 6.51779C84.0445 6.65597 84.3372 6.78254 84.6765 6.89786C85.0154 7.01318 85.397 7.13202 85.8214 7.25507C86.432 7.4393 87.068 7.64287 87.7291 7.86543C88.3906 8.08798 88.992 8.38367 89.5347 8.75213C90.0775 9.1206 90.5274 9.57801 90.8834 10.123C91.2394 10.6683 91.4172 11.3479 91.4172 12.1615C91.4172 13.0985 91.2266 13.9085 90.8454 14.5917C90.4634 15.2751 89.9505 15.8398 89.3061 16.2849C88.6616 16.7304 87.924 17.0605 87.0932 17.2753C86.262 17.4905 85.406 17.5981 84.5243 17.5981C83.2354 17.5981 81.9888 17.3942 80.7849 16.9874C79.5807 16.5809 78.5802 16.0008 77.7832 15.2484L80.632 12.6224C81.073 13.1139 81.6538 13.5246 82.3747 13.8547C83.0953 14.1852 83.8115 14.3498 84.5243 14.3498C84.8462 14.3498 85.1602 14.3195 85.4654 14.2576C85.7705 14.1965 86.0372 14.0966 86.2663 13.9581C86.4953 13.8199 86.6778 13.6357 86.8133 13.4054C86.9488 13.1751 87.0167 12.8988 87.0167 12.5764C87.0167 12.2691 86.9317 12.0082 86.7628 11.793C86.5928 11.5782 86.3509 11.3824 86.0372 11.2055C85.7239 11.029 85.3334 10.868 84.8675 10.7217C84.4005 10.5762 83.8713 10.4187 83.2777 10.2495C82.7008 10.0808 82.1367 9.88108 81.5859 9.65044C81.035 9.42015 80.5431 9.12482 80.111 8.76374C79.6781 8.40301 79.3307 7.96528 79.0678 7.45055C78.805 6.93618 78.6738 6.31035 78.6738 5.57343C78.6738 4.66738 78.8772 3.89178 79.2841 3.24662C79.6909 2.60145 80.2251 2.07196 80.8867 1.65709C81.5478 1.24257 82.2944 0.939498 83.1248 0.747179C83.9556 0.555564 84.7953 0.459229 85.6432 0.459229C86.6603 0.459229 87.6992 0.628342 88.7591 0.966218C89.8185 1.30409 90.7468 1.80335 91.5446 2.46363L88.7719 5.11249Z" fill="black"/>
</svg>
