<svg width="80" height="84" viewBox="0 0 80 84" fill="none" xmlns="http://www.w3.org/2000/svg">
<path opacity="0.24" d="M51.3333 84C50.4 84 49.5833 83.65 48.8833 82.95C48.1833 82.25 47.8333 81.4333 47.8333 80.5C47.8333 79.4889 48.1833 78.6528 48.8833 77.9917C49.5833 77.3306 50.4 77 51.3333 77C55.9222 77 59.7917 76.0667 62.9417 74.2C66.0917 72.3333 67.6667 70.1556 67.6667 67.6667C67.6667 65.8778 66.5194 64.1278 64.225 62.4167C61.9306 60.7056 58.8389 59.3833 54.95 58.45L60.4333 52.9667C65.3333 54.4444 68.9306 56.4861 71.225 59.0917C73.5194 61.6972 74.6667 64.5555 74.6667 67.6667C74.6667 72.8778 72.2944 76.9028 67.55 79.7417C62.8056 82.5806 57.4 84 51.3333 84ZM14 49.7C9.02222 48.6111 5.44444 46.9 3.26667 44.5667C1.08889 42.2333 0 39.8222 0 37.3333C0 34.6111 1.01111 32.1611 3.03333 29.9833C5.05556 27.8056 9.72222 25.3944 17.0333 22.75C22.1667 20.8833 25.4722 19.3667 26.95 18.2C28.4278 17.0333 29.1667 15.6722 29.1667 14.1167C29.1667 12.1722 28.3111 10.5 26.6 9.1C24.8889 7.7 22.2444 7 18.6667 7C16.5667 7 14.7778 7.27222 13.3 7.81667C11.8222 8.36111 10.5 9.21667 9.33333 10.3833C8.71111 11.0056 7.91389 11.375 6.94167 11.4917C5.96945 11.6083 5.09444 11.3556 4.31667 10.7333C3.46111 10.1111 3.01389 9.33333 2.975 8.4C2.93611 7.46667 3.22778 6.65 3.85 5.95C5.17222 4.23889 7.15555 2.81944 9.8 1.69167C12.4444 0.563889 15.4 0 18.6667 0C23.9556 0 28.1944 1.26389 31.3833 3.79167C34.5722 6.31944 36.1667 9.76111 36.1667 14.1167C36.1667 17.3056 35.0583 20.0083 32.8417 22.225C30.625 24.4417 26.2889 26.7556 19.8333 29.1667C14.6222 31.1111 11.1806 32.6472 9.50833 33.775C7.83611 34.9028 7 36.0889 7 37.3333C7 38.5778 8.05 39.7639 10.15 40.8917C12.25 42.0194 15.4 43.0889 19.6 44.1L14 49.7ZM71.8667 31.7333L56.9333 16.8L62.1833 11.55C63.5833 10.15 65.1389 9.45 66.85 9.45C68.5611 9.45 70.1167 10.15 71.5167 11.55L77.1167 17.15C78.5167 18.55 79.2167 20.1056 79.2167 21.8167C79.2167 23.5278 78.5167 25.0833 77.1167 26.4833L71.8667 31.7333ZM11.6667 77H16.5667L56.8167 36.75L51.9167 31.85L11.6667 72.1V77ZM4.66667 84V69.0667L51.9167 21.8167L66.85 36.75L19.6 84H4.66667Z" fill="black"/>
</svg>
