<svg width="63" height="11" viewBox="0 0 63 11" fill="none" xmlns="http://www.w3.org/2000/svg">
<path opacity="0.84" d="M6.07067 3.14453C6.02758 2.74136 5.846 2.42744 5.52592 2.20277C5.20893 1.9781 4.79652 1.86577 4.28871 1.86577C3.9317 1.86577 3.62547 1.91963 3.37003 2.02734C3.11458 2.13506 2.91915 2.28125 2.78374 2.46591C2.64832 2.65057 2.57907 2.86139 2.57599 3.09837C2.57599 3.29534 2.62062 3.46615 2.70987 3.6108C2.8022 3.75544 2.92685 3.87855 3.08381 3.98011C3.24077 4.0786 3.41465 4.16169 3.60547 4.2294C3.79628 4.29711 3.98864 4.35405 4.18253 4.40021L5.06889 4.6218C5.4259 4.7049 5.76906 4.81723 6.09837 4.95881C6.43075 5.10038 6.72775 5.27888 6.98935 5.49432C7.25402 5.70975 7.4633 5.96982 7.61719 6.2745C7.77107 6.57919 7.84801 6.9362 7.84801 7.34553C7.84801 7.8995 7.70644 8.38731 7.4233 8.80895C7.14015 9.22751 6.73082 9.55528 6.19531 9.79226C5.66288 10.0262 5.01811 10.1431 4.26101 10.1431C3.52545 10.1431 2.88684 10.0292 2.34517 9.80149C1.80658 9.57375 1.38494 9.24136 1.08026 8.80433C0.778646 8.36731 0.61553 7.83487 0.590909 7.20703H2.27592C2.30054 7.53634 2.40211 7.81025 2.58061 8.02876C2.75911 8.24728 2.99148 8.41039 3.2777 8.51811C3.567 8.62583 3.89015 8.67969 4.24716 8.67969C4.61956 8.67969 4.94579 8.62429 5.22585 8.51349C5.509 8.39962 5.73059 8.24266 5.89062 8.04261C6.05066 7.83949 6.13222 7.60251 6.1353 7.33168C6.13222 7.08546 6.0599 6.88234 5.91832 6.7223C5.77675 6.55919 5.57824 6.42377 5.3228 6.31605C5.07043 6.20526 4.77498 6.10677 4.43643 6.0206L3.3608 5.74361C2.58215 5.54356 1.96662 5.24041 1.5142 4.83416C1.06487 4.42483 0.840199 3.88163 0.840199 3.20454C0.840199 2.64749 0.991004 2.15968 1.29261 1.74112C1.5973 1.32256 2.01125 0.997869 2.53445 0.767045C3.05765 0.533144 3.65009 0.416193 4.31179 0.416193C4.98272 0.416193 5.57055 0.533144 6.07528 0.767045C6.5831 0.997869 6.98165 1.31948 7.27095 1.73189C7.56025 2.14122 7.70952 2.6121 7.71875 3.14453H6.07067ZM9.37491 10V0.545454H15.5241V1.98118H11.0876V4.54794H15.2055V5.98366H11.0876V8.56428H15.561V10H9.37491ZM17.2714 10V0.545454H20.8169C21.5432 0.545454 22.1526 0.671638 22.645 0.924005C23.1405 1.17637 23.5144 1.5303 23.7668 1.98579C24.0222 2.43821 24.1499 2.96603 24.1499 3.56925C24.1499 4.17554 24.0207 4.70182 23.7622 5.14808C23.5067 5.59126 23.1297 5.93442 22.6311 6.17756C22.1325 6.41761 21.5201 6.53764 20.7938 6.53764H18.2686V5.11577H20.5629C20.9877 5.11577 21.3354 5.05729 21.6063 4.94034C21.8771 4.82031 22.0771 4.64642 22.2064 4.41868C22.3387 4.18785 22.4049 3.90471 22.4049 3.56925C22.4049 3.23378 22.3387 2.94756 22.2064 2.71058C22.0741 2.47053 21.8725 2.28894 21.6017 2.16584C21.3308 2.03965 20.9815 1.97656 20.5537 1.97656H18.9841V10H17.2714ZM22.1556 5.71591L24.4962 10H22.585L20.286 5.71591H22.1556ZM26.7502 0.545454L29.2108 7.98722H29.3077L31.7637 0.545454H33.6472L30.3141 10H28.1998L24.8713 0.545454H26.7502ZM36.6052 0.545454V10H34.8925V0.545454H36.6052ZM46.5526 3.73544H44.826C44.7768 3.4523 44.686 3.20147 44.5536 2.98295C44.4213 2.76136 44.2566 2.57363 44.0597 2.41974C43.8627 2.26586 43.638 2.15045 43.3857 2.07351C43.1364 1.99349 42.8671 1.95348 42.5778 1.95348C42.0638 1.95348 41.6083 2.08274 41.2113 2.34126C40.8143 2.59671 40.5034 2.97218 40.2788 3.46768C40.0541 3.96011 39.9418 4.56179 39.9418 5.27273C39.9418 5.99598 40.0541 6.60535 40.2788 7.10085C40.5065 7.59328 40.8174 7.96567 41.2113 8.21804C41.6083 8.46733 42.0623 8.59197 42.5732 8.59197C42.8563 8.59197 43.121 8.55504 43.3672 8.48118C43.6165 8.40424 43.8396 8.2919 44.0366 8.14418C44.2366 7.99645 44.4044 7.81487 44.5398 7.59943C44.6783 7.384 44.7737 7.13778 44.826 6.8608L46.5526 6.87003C46.4879 7.31937 46.3479 7.741 46.1325 8.13494C45.9201 8.52888 45.6416 8.87666 45.2969 9.17827C44.9522 9.4768 44.549 9.7107 44.0874 9.87997C43.6257 10.0462 43.1133 10.1293 42.5501 10.1293C41.7191 10.1293 40.9774 9.93691 40.3249 9.5522C39.6725 9.1675 39.1585 8.61198 38.783 7.88565C38.4076 7.15933 38.2198 6.28835 38.2198 5.27273C38.2198 4.25402 38.4091 3.38305 38.7876 2.6598C39.1662 1.93348 39.6817 1.37796 40.3342 0.993252C40.9866 0.608546 41.7253 0.416193 42.5501 0.416193C43.0763 0.416193 43.5657 0.490056 44.0181 0.637784C44.4705 0.785511 44.8737 1.00249 45.2276 1.28871C45.5816 1.57185 45.8724 1.91963 46.1001 2.33203C46.331 2.74136 46.4818 3.20916 46.5526 3.73544ZM48.121 10V0.545454H54.2702V1.98118H49.8337V4.54794H53.9516V5.98366H49.8337V8.56428H54.3071V10H48.121ZM61.1556 3.14453C61.1125 2.74136 60.931 2.42744 60.6109 2.20277C60.2939 1.9781 59.8815 1.86577 59.3737 1.86577C59.0167 1.86577 58.7104 1.91963 58.455 2.02734C58.1995 2.13506 58.0041 2.28125 57.8687 2.46591C57.7333 2.65057 57.664 2.86139 57.661 3.09837C57.661 3.29534 57.7056 3.46615 57.7948 3.6108C57.8872 3.75544 58.0118 3.87855 58.1688 3.98011C58.3257 4.0786 58.4996 4.16169 58.6904 4.2294C58.8812 4.29711 59.0736 4.35405 59.2675 4.40021L60.1539 4.6218C60.5109 4.7049 60.854 4.81723 61.1833 4.95881C61.5157 5.10038 61.8127 5.27888 62.0743 5.49432C62.339 5.70975 62.5483 5.96982 62.7021 6.2745C62.856 6.57919 62.933 6.9362 62.933 7.34553C62.933 7.8995 62.7914 8.38731 62.5083 8.80895C62.2251 9.22751 61.8158 9.55528 61.2803 9.79226C60.7478 10.0262 60.1031 10.1431 59.346 10.1431C58.6104 10.1431 57.9718 10.0292 57.4301 9.80149C56.8915 9.57375 56.4699 9.24136 56.1652 8.80433C55.8636 8.36731 55.7005 7.83487 55.6759 7.20703H57.3609C57.3855 7.53634 57.4871 7.81025 57.6656 8.02876C57.8441 8.24728 58.0764 8.41039 58.3627 8.51811C58.652 8.62583 58.9751 8.67969 59.3321 8.67969C59.7045 8.67969 60.0307 8.62429 60.3108 8.51349C60.594 8.39962 60.8155 8.24266 60.9756 8.04261C61.1356 7.83949 61.2172 7.60251 61.2203 7.33168C61.2172 7.08546 61.1449 6.88234 61.0033 6.7223C60.8617 6.55919 60.6632 6.42377 60.4078 6.31605C60.1554 6.20526 59.8599 6.10677 59.5214 6.0206L58.4458 5.74361C57.6671 5.54356 57.0516 5.24041 56.5992 4.83416C56.1498 4.42483 55.9252 3.88163 55.9252 3.20454C55.9252 2.64749 56.076 2.15968 56.3776 1.74112C56.6823 1.32256 57.0962 0.997869 57.6194 0.767045C58.1426 0.533144 58.7351 0.416193 59.3968 0.416193C60.0677 0.416193 60.6555 0.533144 61.1602 0.767045C61.6681 0.997869 62.0666 1.31948 62.3559 1.73189C62.6452 2.14122 62.7945 2.6121 62.8037 3.14453H61.1556Z" fill="black"/>
</svg>
